%TF.GenerationSoftware,KiCad,Pcbnew,9.0.5*%
%TF.CreationDate,2025-10-31T02:29:56+01:00*%
%TF.ProjectId,ESP32S3UMCarrierBoard,45535033-3253-4335-954d-436172726965,rev?*%
%TF.SameCoordinates,Original*%
%TF.FileFunction,Copper,L1,Top*%
%TF.FilePolarity,Positive*%
%FSLAX46Y46*%
G04 Gerber Fmt 4.6, Leading zero omitted, Abs format (unit mm)*
G04 Created by KiCad (PCBNEW 9.0.5) date 2025-10-31 02:29:56*
%MOMM*%
%LPD*%
G01*
G04 APERTURE LIST*
G04 Aperture macros list*
%AMRoundRect*
0 Rectangle with rounded corners*
0 $1 Rounding radius*
0 $2 $3 $4 $5 $6 $7 $8 $9 X,Y pos of 4 corners*
0 Add a 4 corners polygon primitive as box body*
4,1,4,$2,$3,$4,$5,$6,$7,$8,$9,$2,$3,0*
0 Add four circle primitives for the rounded corners*
1,1,$1+$1,$2,$3*
1,1,$1+$1,$4,$5*
1,1,$1+$1,$6,$7*
1,1,$1+$1,$8,$9*
0 Add four rect primitives between the rounded corners*
20,1,$1+$1,$2,$3,$4,$5,0*
20,1,$1+$1,$4,$5,$6,$7,0*
20,1,$1+$1,$6,$7,$8,$9,0*
20,1,$1+$1,$8,$9,$2,$3,0*%
G04 Aperture macros list end*
%TA.AperFunction,SMDPad,CuDef*%
%ADD10RoundRect,0.250000X-0.475000X0.250000X-0.475000X-0.250000X0.475000X-0.250000X0.475000X0.250000X0*%
%TD*%
%TA.AperFunction,SMDPad,CuDef*%
%ADD11RoundRect,0.100000X-0.130000X-0.100000X0.130000X-0.100000X0.130000X0.100000X-0.130000X0.100000X0*%
%TD*%
%TA.AperFunction,ComponentPad*%
%ADD12C,2.000000*%
%TD*%
%TA.AperFunction,SMDPad,CuDef*%
%ADD13RoundRect,0.150000X-0.512500X-0.150000X0.512500X-0.150000X0.512500X0.150000X-0.512500X0.150000X0*%
%TD*%
%TA.AperFunction,ComponentPad*%
%ADD14C,4.600000*%
%TD*%
%TA.AperFunction,SMDPad,CuDef*%
%ADD15RoundRect,0.150000X1.225000X-0.450000X1.225000X0.450000X-1.225000X0.450000X-1.225000X-0.450000X0*%
%TD*%
%TA.AperFunction,SMDPad,CuDef*%
%ADD16RoundRect,0.075000X0.700000X-0.075000X0.700000X0.075000X-0.700000X0.075000X-0.700000X-0.075000X0*%
%TD*%
%TA.AperFunction,SMDPad,CuDef*%
%ADD17RoundRect,0.150000X-0.425000X0.150000X-0.425000X-0.150000X0.425000X-0.150000X0.425000X0.150000X0*%
%TD*%
%TA.AperFunction,SMDPad,CuDef*%
%ADD18RoundRect,0.075000X-0.500000X0.075000X-0.500000X-0.075000X0.500000X-0.075000X0.500000X0.075000X0*%
%TD*%
%TA.AperFunction,HeatsinkPad*%
%ADD19O,2.100000X1.000000*%
%TD*%
%TA.AperFunction,HeatsinkPad*%
%ADD20O,1.800000X1.000000*%
%TD*%
%TA.AperFunction,ViaPad*%
%ADD21C,0.600000*%
%TD*%
%TA.AperFunction,Conductor*%
%ADD22C,0.500000*%
%TD*%
%TA.AperFunction,Conductor*%
%ADD23C,0.250000*%
%TD*%
G04 APERTURE END LIST*
D10*
%TO.P,C1,1*%
%TO.N,+VBUS*%
X10750000Y19200000D03*
%TO.P,C1,2*%
%TO.N,GND*%
X10750000Y17300000D03*
%TD*%
%TO.P,C3,1*%
%TO.N,+VUSB*%
X17250000Y19200000D03*
%TO.P,C3,2*%
%TO.N,GND*%
X17250000Y17300000D03*
%TD*%
D11*
%TO.P,R2,1*%
%TO.N,Net-(J2-CC2)*%
X9325000Y20900000D03*
%TO.P,R2,2*%
%TO.N,GND*%
X9965000Y20900000D03*
%TD*%
D12*
%TO.P,SW1,1,1*%
%TO.N,GND*%
X10750000Y6250000D03*
X4250000Y6250000D03*
%TO.P,SW1,2,2*%
%TO.N,Net-(J1-IO0)*%
X10750000Y10750000D03*
X4250000Y10750000D03*
%TD*%
%TO.P,SW2,1,1*%
%TO.N,GND*%
X21250000Y6250000D03*
X14750000Y6250000D03*
%TO.P,SW2,2,2*%
%TO.N,Net-(J1-RESET)*%
X21250000Y10750000D03*
X14750000Y10750000D03*
%TD*%
D13*
%TO.P,U1,1,I/O1*%
%TO.N,/CarrierBoard_BlockModel/USBCD-*%
X11962500Y23450000D03*
%TO.P,U1,2,GND*%
%TO.N,GND*%
X11962500Y22500000D03*
%TO.P,U1,3,I/O2*%
%TO.N,/CarrierBoard_BlockModel/USBCD+*%
X11962500Y21550000D03*
%TO.P,U1,4,I/O2*%
%TO.N,/CarrierBoard_BlockModel/USB_D+*%
X14237500Y21550000D03*
%TO.P,U1,5,VBUS*%
%TO.N,+VBUS*%
X14237500Y22500000D03*
%TO.P,U1,6,I/O1*%
%TO.N,/CarrierBoard_BlockModel/USB_D-*%
X14237500Y23450000D03*
%TD*%
D11*
%TO.P,R3,1*%
%TO.N,Net-(J2-CC1)*%
X9325000Y24100000D03*
%TO.P,R3,2*%
%TO.N,GND*%
X9965000Y24100000D03*
%TD*%
D14*
%TO.P,J1,*%
%TO.N,*%
X50639999Y15299997D03*
D15*
X25400000Y15450000D03*
X25400000Y36150000D03*
D16*
%TO.P,J1,1,5V*%
%TO.N,+VUSB*%
X24625000Y16550000D03*
%TO.P,J1,2,GND*%
%TO.N,GND*%
X32175000Y16800000D03*
%TO.P,J1,3,5V*%
%TO.N,+VUSB*%
X24625000Y17050000D03*
%TO.P,J1,4,GND*%
%TO.N,GND*%
X32175000Y17299999D03*
%TO.P,J1,5,VBAT*%
%TO.N,+BATT*%
X24625000Y17550000D03*
%TO.P,J1,6,GND*%
%TO.N,GND*%
X32175000Y17800000D03*
%TO.P,J1,7,VBAT*%
%TO.N,+BATT*%
X24625000Y18050000D03*
%TO.P,J1,8,GND*%
%TO.N,GND*%
X32175000Y18300000D03*
%TO.P,J1,9,3V3*%
%TO.N,+3V3*%
X24625000Y18550000D03*
%TO.P,J1,10,GND*%
%TO.N,GND*%
X32174999Y18800000D03*
%TO.P,J1,11,3V3*%
%TO.N,+3V3*%
X24625000Y19050000D03*
%TO.P,J1,20,20*%
%TO.N,unconnected-(J1-Pad20)*%
X32174999Y21300000D03*
%TO.P,J1,21,3V3_EN*%
%TO.N,unconnected-(J1-3V3_EN-Pad21)*%
X24625000Y21550000D03*
%TO.P,J1,22,IO0*%
%TO.N,Net-(J1-IO0)*%
X32175000Y21800000D03*
%TO.P,J1,23,RESET*%
%TO.N,Net-(J1-RESET)*%
X24625000Y22050000D03*
%TO.P,J1,24,IO1*%
%TO.N,unconnected-(J1-IO1-Pad24)*%
X32175000Y22300000D03*
%TO.P,J1,25,IO46*%
%TO.N,unconnected-(J1-IO46-Pad25)*%
X24625000Y22550000D03*
%TO.P,J1,26,IO2*%
%TO.N,unconnected-(J1-IO2-Pad26)*%
X32175000Y22800000D03*
%TO.P,J1,27,IO45*%
%TO.N,unconnected-(J1-IO45-Pad27)*%
X24625000Y23050000D03*
%TO.P,J1,28,IO3*%
%TO.N,unconnected-(J1-IO3-Pad28)*%
X32175000Y23300000D03*
%TO.P,J1,29,IO44/RX*%
%TO.N,unconnected-(J1-IO44{slash}RX-Pad29)*%
X24625000Y23550000D03*
%TO.P,J1,30,IO4*%
%TO.N,unconnected-(J1-IO4-Pad30)*%
X32174999Y23800000D03*
%TO.P,J1,31,IO43/TX*%
%TO.N,unconnected-(J1-IO43{slash}TX-Pad31)*%
X24625000Y24050000D03*
%TO.P,J1,32,IO5*%
%TO.N,unconnected-(J1-IO5-Pad32)*%
X32175000Y24300000D03*
%TO.P,J1,33,IO42/MTMS*%
%TO.N,unconnected-(J1-IO42{slash}MTMS-Pad33)*%
X24625000Y24550000D03*
%TO.P,J1,34,34*%
%TO.N,unconnected-(J1-Pad34)*%
X32175000Y24800000D03*
%TO.P,J1,35,IO41/MTDI*%
%TO.N,unconnected-(J1-IO41{slash}MTDI-Pad35)*%
X24625000Y25050000D03*
%TO.P,J1,36,IO7*%
%TO.N,unconnected-(J1-IO7-Pad36)*%
X32175000Y25300001D03*
%TO.P,J1,37,37*%
%TO.N,unconnected-(J1-Pad37)*%
X24625000Y25550000D03*
%TO.P,J1,38,IO8*%
%TO.N,unconnected-(J1-IO8-Pad38)*%
X32175000Y25800000D03*
%TO.P,J1,39,39*%
%TO.N,unconnected-(J1-Pad39)*%
X24625000Y26050000D03*
%TO.P,J1,40,IO9*%
%TO.N,unconnected-(J1-IO9-Pad40)*%
X32175000Y26299999D03*
%TO.P,J1,41,41*%
%TO.N,unconnected-(J1-Pad41)*%
X24625000Y26550000D03*
%TO.P,J1,42,IO10*%
%TO.N,unconnected-(J1-IO10-Pad42)*%
X32175000Y26800000D03*
%TO.P,J1,43,43*%
%TO.N,unconnected-(J1-Pad43)*%
X24625000Y27050000D03*
%TO.P,J1,44,GND*%
%TO.N,GND*%
X32175000Y27300000D03*
%TO.P,J1,45,45*%
%TO.N,unconnected-(J1-Pad45)*%
X24625000Y27550000D03*
%TO.P,J1,46,D-*%
%TO.N,/CarrierBoard_BlockModel/USB_D-*%
X32174999Y27800000D03*
%TO.P,J1,47,47*%
%TO.N,unconnected-(J1-Pad47)*%
X24625000Y28050000D03*
%TO.P,J1,48,D+*%
%TO.N,/CarrierBoard_BlockModel/USB_D+*%
X32175000Y28300000D03*
%TO.P,J1,49,49*%
%TO.N,unconnected-(J1-Pad49)*%
X24625000Y28550000D03*
%TO.P,J1,50,GND*%
%TO.N,GND*%
X32175000Y28800000D03*
%TO.P,J1,51,IO40/MTDO*%
%TO.N,unconnected-(J1-IO40{slash}MTDO-Pad51)*%
X24625000Y29050000D03*
%TO.P,J1,52,GND*%
%TO.N,GND*%
X32175000Y29300000D03*
%TO.P,J1,53,IO39/MTCK*%
%TO.N,unconnected-(J1-IO39{slash}MTCK-Pad53)*%
X24625000Y29550000D03*
%TO.P,J1,54,GND*%
%TO.N,GND*%
X32175000Y29800000D03*
%TO.P,J1,55,GND*%
X24625000Y30050000D03*
%TO.P,J1,56,GND*%
X32174999Y30300000D03*
%TO.P,J1,57,GND*%
X24625000Y30550000D03*
%TO.P,J1,58,IO21*%
%TO.N,unconnected-(J1-IO21-Pad58)*%
X32175000Y30800000D03*
%TO.P,J1,59,GND*%
%TO.N,GND*%
X24625000Y31050000D03*
%TO.P,J1,60,IO18*%
%TO.N,unconnected-(J1-IO18-Pad60)*%
X32175000Y31300000D03*
%TO.P,J1,61,XIO0*%
%TO.N,unconnected-(J1-XIO0-Pad61)*%
X24625000Y31550000D03*
%TO.P,J1,62,IO17*%
%TO.N,unconnected-(J1-IO17-Pad62)*%
X32175000Y31800000D03*
%TO.P,J1,63,XIO1*%
%TO.N,unconnected-(J1-XIO1-Pad63)*%
X24625000Y32050000D03*
%TO.P,J1,64,IO16*%
%TO.N,unconnected-(J1-IO16-Pad64)*%
X32175000Y32300000D03*
%TO.P,J1,65,XIO2*%
%TO.N,unconnected-(J1-XIO2-Pad65)*%
X24625000Y32550000D03*
%TO.P,J1,66,IO15*%
%TO.N,unconnected-(J1-IO15-Pad66)*%
X32174999Y32800000D03*
%TO.P,J1,67,XIO3*%
%TO.N,unconnected-(J1-XIO3-Pad67)*%
X24625000Y33050000D03*
%TO.P,J1,68,IO14*%
%TO.N,unconnected-(J1-IO14-Pad68)*%
X32175000Y33300000D03*
%TO.P,J1,69,XIO4*%
%TO.N,unconnected-(J1-XIO4-Pad69)*%
X24625000Y33550000D03*
%TO.P,J1,70,IO13*%
%TO.N,unconnected-(J1-IO13-Pad70)*%
X32175000Y33800000D03*
%TO.P,J1,71,XIO5*%
%TO.N,unconnected-(J1-XIO5-Pad71)*%
X24625000Y34050000D03*
%TO.P,J1,72,IO12*%
%TO.N,unconnected-(J1-IO12-Pad72)*%
X32175000Y34300001D03*
%TO.P,J1,73,XIO6*%
%TO.N,unconnected-(J1-XIO6-Pad73)*%
X24625000Y34550000D03*
%TO.P,J1,74,IO11*%
%TO.N,unconnected-(J1-IO11-Pad74)*%
X32175000Y34800000D03*
%TO.P,J1,75,XIO7*%
%TO.N,unconnected-(J1-XIO7-Pad75)*%
X24625000Y35050000D03*
%TD*%
D10*
%TO.P,C2,1*%
%TO.N,+VUSB*%
X15000000Y19200000D03*
%TO.P,C2,2*%
%TO.N,GND*%
X15000000Y17300000D03*
%TD*%
D17*
%TO.P,J2,A1,GND*%
%TO.N,GND*%
X7180000Y25700000D03*
%TO.P,J2,A4,VBUS*%
%TO.N,+VBUS*%
X7180000Y24900000D03*
D18*
%TO.P,J2,A5,CC1*%
%TO.N,Net-(J2-CC1)*%
X7180000Y23750000D03*
%TO.P,J2,A6,D+*%
%TO.N,/CarrierBoard_BlockModel/USBCD+*%
X7180000Y22750000D03*
%TO.P,J2,A7,D-*%
%TO.N,/CarrierBoard_BlockModel/USBCD-*%
X7180000Y22250000D03*
%TO.P,J2,A8,SBU1*%
%TO.N,unconnected-(J2-SBU1-PadA8)*%
X7180000Y21250000D03*
D17*
%TO.P,J2,A9,VBUS*%
%TO.N,+VBUS*%
X7180000Y20100000D03*
%TO.P,J2,A12,GND*%
%TO.N,GND*%
X7180000Y19300000D03*
%TO.P,J2,B1,GND*%
X7180000Y19300000D03*
%TO.P,J2,B4,VBUS*%
%TO.N,+VBUS*%
X7180000Y20100000D03*
D18*
%TO.P,J2,B5,CC2*%
%TO.N,Net-(J2-CC2)*%
X7180000Y20750000D03*
%TO.P,J2,B6,D+*%
%TO.N,/CarrierBoard_BlockModel/USBCD+*%
X7180000Y21750000D03*
%TO.P,J2,B7,D-*%
%TO.N,/CarrierBoard_BlockModel/USBCD-*%
X7180000Y23250000D03*
%TO.P,J2,B8,SBU2*%
%TO.N,unconnected-(J2-SBU2-PadB8)*%
X7180000Y24250000D03*
D17*
%TO.P,J2,B9,VBUS*%
%TO.N,+VBUS*%
X7180000Y24900000D03*
%TO.P,J2,B12,GND*%
%TO.N,GND*%
X7180000Y25700000D03*
D19*
%TO.P,J2,S1,SHIELD*%
X6605000Y26820000D03*
D20*
X2425000Y26820000D03*
D19*
X6605000Y18180000D03*
D20*
X2425000Y18180000D03*
%TD*%
D11*
%TO.P,R1,1*%
%TO.N,+VBUS*%
X12430000Y19250000D03*
%TO.P,R1,2*%
%TO.N,+VUSB*%
X13070000Y19250000D03*
%TD*%
D21*
%TO.N,+VBUS*%
X8400000Y24900000D03*
X8400000Y20100000D03*
X13612373Y22624999D03*
%TO.N,GND*%
X8400000Y18900000D03*
X8400000Y26200000D03*
%TD*%
D22*
%TO.N,+VBUS*%
X7180000Y24900000D02*
X8400000Y24900000D01*
X12339000Y19200000D02*
X12389000Y19250000D01*
X8400000Y20100000D02*
X8800000Y20100000D01*
X9750000Y19150000D02*
X10600000Y19150000D01*
X7180000Y20100000D02*
X8400000Y20100000D01*
X10750000Y19200000D02*
X12339000Y19200000D01*
X8800000Y20100000D02*
X9750000Y19150000D01*
%TO.N,GND*%
X7180000Y19300000D02*
X8000000Y19300000D01*
X7900000Y25700000D02*
X8100000Y25900000D01*
X8400000Y18900000D02*
X10050000Y17250000D01*
X8000000Y19300000D02*
X8400000Y18900000D01*
X10750000Y17300000D02*
X17250000Y17300000D01*
X8100000Y25900000D02*
X8300000Y26100000D01*
X8300000Y26100000D02*
X8400000Y26200000D01*
X7180000Y25700000D02*
X7900000Y25700000D01*
X10050000Y17250000D02*
X10600000Y17250000D01*
%TO.N,+VUSB*%
X13161000Y19200000D02*
X13111000Y19250000D01*
D23*
X23500000Y16500000D02*
X23450000Y16550000D01*
X23450000Y16550000D02*
X23450000Y17050000D01*
X21300000Y19200000D02*
X17250000Y19200000D01*
X23450000Y17050000D02*
X21300000Y19200000D01*
D22*
X15000000Y19200000D02*
X13161000Y19200000D01*
D23*
X24625000Y17050000D02*
X23450000Y17050000D01*
X23550000Y16550000D02*
X23500000Y16500000D01*
D22*
X15000000Y19200000D02*
X17250000Y19200000D01*
D23*
X24625000Y16550000D02*
X23550000Y16550000D01*
%TO.N,/CarrierBoard_BlockModel/USBCD-*%
X8850000Y23250000D02*
X9050000Y23450000D01*
X8850000Y22850000D02*
X8850000Y23250000D01*
X9050000Y23450000D02*
X11962500Y23450000D01*
X7180000Y23250000D02*
X8850000Y23250000D01*
X7180000Y22250000D02*
X8250000Y22250000D01*
X8250000Y22250000D02*
X8850000Y22850000D01*
%TO.N,/CarrierBoard_BlockModel/USBCD+*%
X7180000Y21750000D02*
X9550000Y21750000D01*
X6200000Y22414178D02*
X6200000Y22085822D01*
X9550000Y21750000D02*
X9750000Y21550000D01*
X6535822Y21750000D02*
X7180000Y21750000D01*
X7180000Y22750000D02*
X6535822Y22750000D01*
X6535822Y22750000D02*
X6200000Y22414178D01*
X6200000Y22085822D02*
X6535822Y21750000D01*
X9750000Y21550000D02*
X11962500Y21550000D01*
%TO.N,Net-(J2-CC2)*%
X7180000Y20750000D02*
X8550000Y20750000D01*
X8550000Y20750000D02*
X8700000Y20900000D01*
X8700000Y20900000D02*
X9325000Y20900000D01*
%TO.N,Net-(J2-CC1)*%
X8600000Y24100000D02*
X9325000Y24100000D01*
X8250000Y23750000D02*
X8600000Y24100000D01*
X7180000Y23750000D02*
X8250000Y23750000D01*
%TD*%
M02*
