M48
; DRILL file {KiCad 9.0.5} date 2025-10-31T02:29:56+0100
; FORMAT={-:-/ absolute / inch / decimal}
; #@! TF.CreationDate,2025-10-31T02:29:56+01:00
; #@! TF.GenerationSoftware,Kicad,Pcbnew,9.0.5
; #@! TF.FileFunction,Plated,1,2,PTH
FMAT,2
INCH
; #@! TA.AperFunction,Plated,PTH,ViaDrill
T1C0.0118
; #@! TA.AperFunction,Plated,PTH,ComponentDrill
T2C0.0236
; #@! TA.AperFunction,Plated,PTH,ComponentDrill
T3C0.0433
; #@! TA.AperFunction,Plated,PTH,ComponentDrill
T4C0.1043
%
G90
G05
T1
X0.3307Y1.0315
X0.3307Y0.9803
X0.3307Y0.7913
X0.3307Y0.7441
X0.5359Y0.8907
T3
X0.1673Y0.4232
X0.1673Y0.2461
X0.4232Y0.4232
X0.4232Y0.2461
X0.5807Y0.4232
X0.5807Y0.2461
X0.8366Y0.4232
X0.8366Y0.2461
T4
X1.9937Y0.6024
T2
G00X0.1112Y1.0559
M15
G01X0.0797Y1.0559
M16
G05
G00X0.1112Y0.7157
M15
G01X0.0797Y0.7157
M16
G05
G00X0.2817Y1.0559
M15
G01X0.2384Y1.0559
M16
G05
G00X0.2817Y0.7157
M15
G01X0.2384Y0.7157
M16
G05
M30
