%TF.GenerationSoftware,KiCad,Pcbnew,9.0.5*%
%TF.CreationDate,2025-11-02T03:08:22+01:00*%
%TF.ProjectId,ESP32S3UMCarrierBoard,45535033-3253-4335-954d-436172726965,rev?*%
%TF.SameCoordinates,Original*%
%TF.FileFunction,Legend,Top*%
%TF.FilePolarity,Positive*%
%FSLAX46Y46*%
G04 Gerber Fmt 4.6, Leading zero omitted, Abs format (unit mm)*
G04 Created by KiCad (PCBNEW 9.0.5) date 2025-11-02 03:08:22*
%MOMM*%
%LPD*%
G01*
G04 APERTURE LIST*
G04 Aperture macros list*
%AMRoundRect*
0 Rectangle with rounded corners*
0 $1 Rounding radius*
0 $2 $3 $4 $5 $6 $7 $8 $9 X,Y pos of 4 corners*
0 Add a 4 corners polygon primitive as box body*
4,1,4,$2,$3,$4,$5,$6,$7,$8,$9,$2,$3,0*
0 Add four circle primitives for the rounded corners*
1,1,$1+$1,$2,$3*
1,1,$1+$1,$4,$5*
1,1,$1+$1,$6,$7*
1,1,$1+$1,$8,$9*
0 Add four rect primitives between the rounded corners*
20,1,$1+$1,$2,$3,$4,$5,0*
20,1,$1+$1,$4,$5,$6,$7,0*
20,1,$1+$1,$6,$7,$8,$9,0*
20,1,$1+$1,$8,$9,$2,$3,0*%
G04 Aperture macros list end*
%ADD10C,0.150000*%
%ADD11C,0.120000*%
%ADD12C,0.127000*%
%ADD13C,1.025000*%
%ADD14C,0.725000*%
%ADD15RoundRect,0.250000X-0.475000X0.250000X-0.475000X-0.250000X0.475000X-0.250000X0.475000X0.250000X0*%
%ADD16RoundRect,0.100000X-0.130000X-0.100000X0.130000X-0.100000X0.130000X0.100000X-0.130000X0.100000X0*%
%ADD17C,2.000000*%
%ADD18C,1.000000*%
%ADD19RoundRect,0.150000X-0.512500X-0.150000X0.512500X-0.150000X0.512500X0.150000X-0.512500X0.150000X0*%
%ADD20R,1.000000X1.000000*%
%ADD21RoundRect,0.250000X-0.625000X0.350000X-0.625000X-0.350000X0.625000X-0.350000X0.625000X0.350000X0*%
%ADD22O,1.750000X1.200000*%
%ADD23RoundRect,0.250000X0.475000X-0.250000X0.475000X0.250000X-0.475000X0.250000X-0.475000X-0.250000X0*%
%ADD24C,4.600000*%
%ADD25RoundRect,0.152500X1.232500X-0.457500X1.232500X0.457500X-1.232500X0.457500X-1.232500X-0.457500X0*%
%ADD26C,1.100000*%
%ADD27C,1.550000*%
%ADD28RoundRect,0.080000X0.705000X-0.080000X0.705000X0.080000X-0.705000X0.080000X-0.705000X-0.080000X0*%
%ADD29C,0.650000*%
%ADD30RoundRect,0.150000X-0.425000X0.150000X-0.425000X-0.150000X0.425000X-0.150000X0.425000X0.150000X0*%
%ADD31RoundRect,0.075000X-0.500000X0.075000X-0.500000X-0.075000X0.500000X-0.075000X0.500000X0.075000X0*%
%ADD32O,2.100000X1.000000*%
%ADD33O,1.800000X1.000000*%
G04 APERTURE END LIST*
D10*
X11109580Y15333334D02*
X11157200Y15285715D01*
X11157200Y15285715D02*
X11204819Y15142858D01*
X11204819Y15142858D02*
X11204819Y15047620D01*
X11204819Y15047620D02*
X11157200Y14904763D01*
X11157200Y14904763D02*
X11061961Y14809525D01*
X11061961Y14809525D02*
X10966723Y14761906D01*
X10966723Y14761906D02*
X10776247Y14714287D01*
X10776247Y14714287D02*
X10633390Y14714287D01*
X10633390Y14714287D02*
X10442914Y14761906D01*
X10442914Y14761906D02*
X10347676Y14809525D01*
X10347676Y14809525D02*
X10252438Y14904763D01*
X10252438Y14904763D02*
X10204819Y15047620D01*
X10204819Y15047620D02*
X10204819Y15142858D01*
X10204819Y15142858D02*
X10252438Y15285715D01*
X10252438Y15285715D02*
X10300057Y15333334D01*
X11204819Y16285715D02*
X11204819Y15714287D01*
X11204819Y16000001D02*
X10204819Y16000001D01*
X10204819Y16000001D02*
X10347676Y15904763D01*
X10347676Y15904763D02*
X10442914Y15809525D01*
X10442914Y15809525D02*
X10490533Y15714287D01*
X17609580Y15333334D02*
X17657200Y15285715D01*
X17657200Y15285715D02*
X17704819Y15142858D01*
X17704819Y15142858D02*
X17704819Y15047620D01*
X17704819Y15047620D02*
X17657200Y14904763D01*
X17657200Y14904763D02*
X17561961Y14809525D01*
X17561961Y14809525D02*
X17466723Y14761906D01*
X17466723Y14761906D02*
X17276247Y14714287D01*
X17276247Y14714287D02*
X17133390Y14714287D01*
X17133390Y14714287D02*
X16942914Y14761906D01*
X16942914Y14761906D02*
X16847676Y14809525D01*
X16847676Y14809525D02*
X16752438Y14904763D01*
X16752438Y14904763D02*
X16704819Y15047620D01*
X16704819Y15047620D02*
X16704819Y15142858D01*
X16704819Y15142858D02*
X16752438Y15285715D01*
X16752438Y15285715D02*
X16800057Y15333334D01*
X16704819Y15666668D02*
X16704819Y16285715D01*
X16704819Y16285715D02*
X17085771Y15952382D01*
X17085771Y15952382D02*
X17085771Y16095239D01*
X17085771Y16095239D02*
X17133390Y16190477D01*
X17133390Y16190477D02*
X17181009Y16238096D01*
X17181009Y16238096D02*
X17276247Y16285715D01*
X17276247Y16285715D02*
X17514342Y16285715D01*
X17514342Y16285715D02*
X17609580Y16238096D01*
X17609580Y16238096D02*
X17657200Y16190477D01*
X17657200Y16190477D02*
X17704819Y16095239D01*
X17704819Y16095239D02*
X17704819Y15809525D01*
X17704819Y15809525D02*
X17657200Y15714287D01*
X17657200Y15714287D02*
X17609580Y15666668D01*
X9433333Y21445181D02*
X9100000Y21921372D01*
X8861905Y21445181D02*
X8861905Y22445181D01*
X8861905Y22445181D02*
X9242857Y22445181D01*
X9242857Y22445181D02*
X9338095Y22397562D01*
X9338095Y22397562D02*
X9385714Y22349943D01*
X9385714Y22349943D02*
X9433333Y22254705D01*
X9433333Y22254705D02*
X9433333Y22111848D01*
X9433333Y22111848D02*
X9385714Y22016610D01*
X9385714Y22016610D02*
X9338095Y21968991D01*
X9338095Y21968991D02*
X9242857Y21921372D01*
X9242857Y21921372D02*
X8861905Y21921372D01*
X9814286Y22349943D02*
X9861905Y22397562D01*
X9861905Y22397562D02*
X9957143Y22445181D01*
X9957143Y22445181D02*
X10195238Y22445181D01*
X10195238Y22445181D02*
X10290476Y22397562D01*
X10290476Y22397562D02*
X10338095Y22349943D01*
X10338095Y22349943D02*
X10385714Y22254705D01*
X10385714Y22254705D02*
X10385714Y22159467D01*
X10385714Y22159467D02*
X10338095Y22016610D01*
X10338095Y22016610D02*
X9766667Y21445181D01*
X9766667Y21445181D02*
X10385714Y21445181D01*
X6166667Y3842800D02*
X6309524Y3795181D01*
X6309524Y3795181D02*
X6547619Y3795181D01*
X6547619Y3795181D02*
X6642857Y3842800D01*
X6642857Y3842800D02*
X6690476Y3890420D01*
X6690476Y3890420D02*
X6738095Y3985658D01*
X6738095Y3985658D02*
X6738095Y4080896D01*
X6738095Y4080896D02*
X6690476Y4176134D01*
X6690476Y4176134D02*
X6642857Y4223753D01*
X6642857Y4223753D02*
X6547619Y4271372D01*
X6547619Y4271372D02*
X6357143Y4318991D01*
X6357143Y4318991D02*
X6261905Y4366610D01*
X6261905Y4366610D02*
X6214286Y4414229D01*
X6214286Y4414229D02*
X6166667Y4509467D01*
X6166667Y4509467D02*
X6166667Y4604705D01*
X6166667Y4604705D02*
X6214286Y4699943D01*
X6214286Y4699943D02*
X6261905Y4747562D01*
X6261905Y4747562D02*
X6357143Y4795181D01*
X6357143Y4795181D02*
X6595238Y4795181D01*
X6595238Y4795181D02*
X6738095Y4747562D01*
X7071429Y4795181D02*
X7309524Y3795181D01*
X7309524Y3795181D02*
X7500000Y4509467D01*
X7500000Y4509467D02*
X7690476Y3795181D01*
X7690476Y3795181D02*
X7928572Y4795181D01*
X8833333Y3795181D02*
X8261905Y3795181D01*
X8547619Y3795181D02*
X8547619Y4795181D01*
X8547619Y4795181D02*
X8452381Y4652324D01*
X8452381Y4652324D02*
X8357143Y4557086D01*
X8357143Y4557086D02*
X8261905Y4509467D01*
X16938095Y23545181D02*
X17509523Y23545181D01*
X17223809Y22545181D02*
X17223809Y23545181D01*
X17842857Y22545181D02*
X17842857Y23545181D01*
X17842857Y23545181D02*
X18223809Y23545181D01*
X18223809Y23545181D02*
X18319047Y23497562D01*
X18319047Y23497562D02*
X18366666Y23449943D01*
X18366666Y23449943D02*
X18414285Y23354705D01*
X18414285Y23354705D02*
X18414285Y23211848D01*
X18414285Y23211848D02*
X18366666Y23116610D01*
X18366666Y23116610D02*
X18319047Y23068991D01*
X18319047Y23068991D02*
X18223809Y23021372D01*
X18223809Y23021372D02*
X17842857Y23021372D01*
X18795238Y23449943D02*
X18842857Y23497562D01*
X18842857Y23497562D02*
X18938095Y23545181D01*
X18938095Y23545181D02*
X19176190Y23545181D01*
X19176190Y23545181D02*
X19271428Y23497562D01*
X19271428Y23497562D02*
X19319047Y23449943D01*
X19319047Y23449943D02*
X19366666Y23354705D01*
X19366666Y23354705D02*
X19366666Y23259467D01*
X19366666Y23259467D02*
X19319047Y23116610D01*
X19319047Y23116610D02*
X18747619Y22545181D01*
X18747619Y22545181D02*
X19366666Y22545181D01*
X16666667Y3842800D02*
X16809524Y3795181D01*
X16809524Y3795181D02*
X17047619Y3795181D01*
X17047619Y3795181D02*
X17142857Y3842800D01*
X17142857Y3842800D02*
X17190476Y3890420D01*
X17190476Y3890420D02*
X17238095Y3985658D01*
X17238095Y3985658D02*
X17238095Y4080896D01*
X17238095Y4080896D02*
X17190476Y4176134D01*
X17190476Y4176134D02*
X17142857Y4223753D01*
X17142857Y4223753D02*
X17047619Y4271372D01*
X17047619Y4271372D02*
X16857143Y4318991D01*
X16857143Y4318991D02*
X16761905Y4366610D01*
X16761905Y4366610D02*
X16714286Y4414229D01*
X16714286Y4414229D02*
X16666667Y4509467D01*
X16666667Y4509467D02*
X16666667Y4604705D01*
X16666667Y4604705D02*
X16714286Y4699943D01*
X16714286Y4699943D02*
X16761905Y4747562D01*
X16761905Y4747562D02*
X16857143Y4795181D01*
X16857143Y4795181D02*
X17095238Y4795181D01*
X17095238Y4795181D02*
X17238095Y4747562D01*
X17571429Y4795181D02*
X17809524Y3795181D01*
X17809524Y3795181D02*
X18000000Y4509467D01*
X18000000Y4509467D02*
X18190476Y3795181D01*
X18190476Y3795181D02*
X18428572Y4795181D01*
X18761905Y4699943D02*
X18809524Y4747562D01*
X18809524Y4747562D02*
X18904762Y4795181D01*
X18904762Y4795181D02*
X19142857Y4795181D01*
X19142857Y4795181D02*
X19238095Y4747562D01*
X19238095Y4747562D02*
X19285714Y4699943D01*
X19285714Y4699943D02*
X19333333Y4604705D01*
X19333333Y4604705D02*
X19333333Y4509467D01*
X19333333Y4509467D02*
X19285714Y4366610D01*
X19285714Y4366610D02*
X18714286Y3795181D01*
X18714286Y3795181D02*
X19333333Y3795181D01*
X12338095Y25445181D02*
X12338095Y24635658D01*
X12338095Y24635658D02*
X12385714Y24540420D01*
X12385714Y24540420D02*
X12433333Y24492800D01*
X12433333Y24492800D02*
X12528571Y24445181D01*
X12528571Y24445181D02*
X12719047Y24445181D01*
X12719047Y24445181D02*
X12814285Y24492800D01*
X12814285Y24492800D02*
X12861904Y24540420D01*
X12861904Y24540420D02*
X12909523Y24635658D01*
X12909523Y24635658D02*
X12909523Y25445181D01*
X13909523Y24445181D02*
X13338095Y24445181D01*
X13623809Y24445181D02*
X13623809Y25445181D01*
X13623809Y25445181D02*
X13528571Y25302324D01*
X13528571Y25302324D02*
X13433333Y25207086D01*
X13433333Y25207086D02*
X13338095Y25159467D01*
X17051666Y36830181D02*
X17051666Y36115896D01*
X17051666Y36115896D02*
X17004047Y35973039D01*
X17004047Y35973039D02*
X16908809Y35877800D01*
X16908809Y35877800D02*
X16765952Y35830181D01*
X16765952Y35830181D02*
X16670714Y35830181D01*
X17956428Y36830181D02*
X17765952Y36830181D01*
X17765952Y36830181D02*
X17670714Y36782562D01*
X17670714Y36782562D02*
X17623095Y36734943D01*
X17623095Y36734943D02*
X17527857Y36592086D01*
X17527857Y36592086D02*
X17480238Y36401610D01*
X17480238Y36401610D02*
X17480238Y36020658D01*
X17480238Y36020658D02*
X17527857Y35925420D01*
X17527857Y35925420D02*
X17575476Y35877800D01*
X17575476Y35877800D02*
X17670714Y35830181D01*
X17670714Y35830181D02*
X17861190Y35830181D01*
X17861190Y35830181D02*
X17956428Y35877800D01*
X17956428Y35877800D02*
X18004047Y35925420D01*
X18004047Y35925420D02*
X18051666Y36020658D01*
X18051666Y36020658D02*
X18051666Y36258753D01*
X18051666Y36258753D02*
X18004047Y36353991D01*
X18004047Y36353991D02*
X17956428Y36401610D01*
X17956428Y36401610D02*
X17861190Y36449229D01*
X17861190Y36449229D02*
X17670714Y36449229D01*
X17670714Y36449229D02*
X17575476Y36401610D01*
X17575476Y36401610D02*
X17527857Y36353991D01*
X17527857Y36353991D02*
X17480238Y36258753D01*
X6066666Y38145181D02*
X6066666Y37430896D01*
X6066666Y37430896D02*
X6019047Y37288039D01*
X6019047Y37288039D02*
X5923809Y37192800D01*
X5923809Y37192800D02*
X5780952Y37145181D01*
X5780952Y37145181D02*
X5685714Y37145181D01*
X6447619Y38145181D02*
X7066666Y38145181D01*
X7066666Y38145181D02*
X6733333Y37764229D01*
X6733333Y37764229D02*
X6876190Y37764229D01*
X6876190Y37764229D02*
X6971428Y37716610D01*
X6971428Y37716610D02*
X7019047Y37668991D01*
X7019047Y37668991D02*
X7066666Y37573753D01*
X7066666Y37573753D02*
X7066666Y37335658D01*
X7066666Y37335658D02*
X7019047Y37240420D01*
X7019047Y37240420D02*
X6971428Y37192800D01*
X6971428Y37192800D02*
X6876190Y37145181D01*
X6876190Y37145181D02*
X6590476Y37145181D01*
X6590476Y37145181D02*
X6495238Y37192800D01*
X6495238Y37192800D02*
X6447619Y37240420D01*
X11733333Y35240420D02*
X11685714Y35192800D01*
X11685714Y35192800D02*
X11542857Y35145181D01*
X11542857Y35145181D02*
X11447619Y35145181D01*
X11447619Y35145181D02*
X11304762Y35192800D01*
X11304762Y35192800D02*
X11209524Y35288039D01*
X11209524Y35288039D02*
X11161905Y35383277D01*
X11161905Y35383277D02*
X11114286Y35573753D01*
X11114286Y35573753D02*
X11114286Y35716610D01*
X11114286Y35716610D02*
X11161905Y35907086D01*
X11161905Y35907086D02*
X11209524Y36002324D01*
X11209524Y36002324D02*
X11304762Y36097562D01*
X11304762Y36097562D02*
X11447619Y36145181D01*
X11447619Y36145181D02*
X11542857Y36145181D01*
X11542857Y36145181D02*
X11685714Y36097562D01*
X11685714Y36097562D02*
X11733333Y36049943D01*
X12590476Y35811848D02*
X12590476Y35145181D01*
X12352381Y36192800D02*
X12114286Y35478515D01*
X12114286Y35478515D02*
X12733333Y35478515D01*
X9833333Y24645181D02*
X9500000Y25121372D01*
X9261905Y24645181D02*
X9261905Y25645181D01*
X9261905Y25645181D02*
X9642857Y25645181D01*
X9642857Y25645181D02*
X9738095Y25597562D01*
X9738095Y25597562D02*
X9785714Y25549943D01*
X9785714Y25549943D02*
X9833333Y25454705D01*
X9833333Y25454705D02*
X9833333Y25311848D01*
X9833333Y25311848D02*
X9785714Y25216610D01*
X9785714Y25216610D02*
X9738095Y25168991D01*
X9738095Y25168991D02*
X9642857Y25121372D01*
X9642857Y25121372D02*
X9261905Y25121372D01*
X10166667Y25645181D02*
X10785714Y25645181D01*
X10785714Y25645181D02*
X10452381Y25264229D01*
X10452381Y25264229D02*
X10595238Y25264229D01*
X10595238Y25264229D02*
X10690476Y25216610D01*
X10690476Y25216610D02*
X10738095Y25168991D01*
X10738095Y25168991D02*
X10785714Y25073753D01*
X10785714Y25073753D02*
X10785714Y24835658D01*
X10785714Y24835658D02*
X10738095Y24740420D01*
X10738095Y24740420D02*
X10690476Y24692800D01*
X10690476Y24692800D02*
X10595238Y24645181D01*
X10595238Y24645181D02*
X10309524Y24645181D01*
X10309524Y24645181D02*
X10214286Y24692800D01*
X10214286Y24692800D02*
X10166667Y24740420D01*
X15359580Y15333334D02*
X15407200Y15285715D01*
X15407200Y15285715D02*
X15454819Y15142858D01*
X15454819Y15142858D02*
X15454819Y15047620D01*
X15454819Y15047620D02*
X15407200Y14904763D01*
X15407200Y14904763D02*
X15311961Y14809525D01*
X15311961Y14809525D02*
X15216723Y14761906D01*
X15216723Y14761906D02*
X15026247Y14714287D01*
X15026247Y14714287D02*
X14883390Y14714287D01*
X14883390Y14714287D02*
X14692914Y14761906D01*
X14692914Y14761906D02*
X14597676Y14809525D01*
X14597676Y14809525D02*
X14502438Y14904763D01*
X14502438Y14904763D02*
X14454819Y15047620D01*
X14454819Y15047620D02*
X14454819Y15142858D01*
X14454819Y15142858D02*
X14502438Y15285715D01*
X14502438Y15285715D02*
X14550057Y15333334D01*
X14550057Y15714287D02*
X14502438Y15761906D01*
X14502438Y15761906D02*
X14454819Y15857144D01*
X14454819Y15857144D02*
X14454819Y16095239D01*
X14454819Y16095239D02*
X14502438Y16190477D01*
X14502438Y16190477D02*
X14550057Y16238096D01*
X14550057Y16238096D02*
X14645295Y16285715D01*
X14645295Y16285715D02*
X14740533Y16285715D01*
X14740533Y16285715D02*
X14883390Y16238096D01*
X14883390Y16238096D02*
X15454819Y15666668D01*
X15454819Y15666668D02*
X15454819Y16285715D01*
X3854819Y15666667D02*
X4569104Y15666667D01*
X4569104Y15666667D02*
X4711961Y15619048D01*
X4711961Y15619048D02*
X4807200Y15523810D01*
X4807200Y15523810D02*
X4854819Y15380953D01*
X4854819Y15380953D02*
X4854819Y15285715D01*
X3950057Y16095239D02*
X3902438Y16142858D01*
X3902438Y16142858D02*
X3854819Y16238096D01*
X3854819Y16238096D02*
X3854819Y16476191D01*
X3854819Y16476191D02*
X3902438Y16571429D01*
X3902438Y16571429D02*
X3950057Y16619048D01*
X3950057Y16619048D02*
X4045295Y16666667D01*
X4045295Y16666667D02*
X4140533Y16666667D01*
X4140533Y16666667D02*
X4283390Y16619048D01*
X4283390Y16619048D02*
X4854819Y16047620D01*
X4854819Y16047620D02*
X4854819Y16666667D01*
X13204819Y15333334D02*
X12728628Y15000001D01*
X13204819Y14761906D02*
X12204819Y14761906D01*
X12204819Y14761906D02*
X12204819Y15142858D01*
X12204819Y15142858D02*
X12252438Y15238096D01*
X12252438Y15238096D02*
X12300057Y15285715D01*
X12300057Y15285715D02*
X12395295Y15333334D01*
X12395295Y15333334D02*
X12538152Y15333334D01*
X12538152Y15333334D02*
X12633390Y15285715D01*
X12633390Y15285715D02*
X12681009Y15238096D01*
X12681009Y15238096D02*
X12728628Y15142858D01*
X12728628Y15142858D02*
X12728628Y14761906D01*
X13204819Y16285715D02*
X13204819Y15714287D01*
X13204819Y16000001D02*
X12204819Y16000001D01*
X12204819Y16000001D02*
X12347676Y15904763D01*
X12347676Y15904763D02*
X12442914Y15809525D01*
X12442914Y15809525D02*
X12490533Y15714287D01*
X10938095Y27745181D02*
X11509523Y27745181D01*
X11223809Y26745181D02*
X11223809Y27745181D01*
X11842857Y26745181D02*
X11842857Y27745181D01*
X11842857Y27745181D02*
X12223809Y27745181D01*
X12223809Y27745181D02*
X12319047Y27697562D01*
X12319047Y27697562D02*
X12366666Y27649943D01*
X12366666Y27649943D02*
X12414285Y27554705D01*
X12414285Y27554705D02*
X12414285Y27411848D01*
X12414285Y27411848D02*
X12366666Y27316610D01*
X12366666Y27316610D02*
X12319047Y27268991D01*
X12319047Y27268991D02*
X12223809Y27221372D01*
X12223809Y27221372D02*
X11842857Y27221372D01*
X13366666Y26745181D02*
X12795238Y26745181D01*
X13080952Y26745181D02*
X13080952Y27745181D01*
X13080952Y27745181D02*
X12985714Y27602324D01*
X12985714Y27602324D02*
X12890476Y27507086D01*
X12890476Y27507086D02*
X12795238Y27459467D01*
D11*
%TO.C,C1*%
X10015000Y18511252D02*
X10015000Y17988748D01*
X11485000Y18511252D02*
X11485000Y17988748D01*
%TO.C,C3*%
X16515000Y18511252D02*
X16515000Y17988748D01*
X17985000Y18511252D02*
X17985000Y17988748D01*
%TO.C,SW1*%
X4000000Y9250000D02*
X4000000Y7750000D01*
X5250000Y5250000D02*
X9750000Y5250000D01*
X9750000Y11750000D02*
X5250000Y11750000D01*
X11000000Y7750000D02*
X11000000Y9250000D01*
%TO.C,TP2*%
X18900000Y24800000D02*
G75*
G02*
X17500000Y24800000I-700000J0D01*
G01*
X17500000Y24800000D02*
G75*
G02*
X18900000Y24800000I700000J0D01*
G01*
%TO.C,SW2*%
X14500000Y9250000D02*
X14500000Y7750000D01*
X15750000Y5250000D02*
X20250000Y5250000D01*
X20250000Y11750000D02*
X15750000Y11750000D01*
X21500000Y7750000D02*
X21500000Y9250000D01*
%TO.C,U1*%
X12190000Y24060000D02*
X14010000Y24060000D01*
X12190000Y24010000D02*
X12190000Y24060000D01*
X12190000Y20940000D02*
X12190000Y20990000D01*
X14010000Y24060000D02*
X14010000Y24010000D01*
X14010000Y20990000D02*
X14010000Y20940000D01*
X14010000Y20940000D02*
X12190000Y20940000D01*
X11650000Y24010000D02*
X11410000Y24340000D01*
X11890000Y24340000D01*
X11650000Y24010000D01*
G36*
X11650000Y24010000D02*
G01*
X11410000Y24340000D01*
X11890000Y24340000D01*
X11650000Y24010000D01*
G37*
%TO.C,J6*%
X15570000Y35350000D02*
X16750000Y35350000D01*
X15570000Y34540000D02*
X15570000Y35350000D01*
X15570000Y33730000D02*
X15570000Y28715000D01*
X15570000Y33730000D02*
X16083292Y33730000D01*
X15570000Y28715000D02*
X16432077Y28715000D01*
X17067923Y28715000D02*
X17702077Y28715000D01*
X18337923Y35285000D02*
X19200000Y35285000D01*
X18337923Y28715000D02*
X19200000Y28715000D01*
X19200000Y35285000D02*
X19200000Y28715000D01*
%TO.C,J3*%
X2290000Y36360000D02*
X2290000Y30240000D01*
X2290000Y33800000D02*
X6650000Y33800000D01*
X2290000Y30240000D02*
X10110000Y30240000D01*
X4550000Y35600000D02*
X4550000Y34600000D01*
X4550000Y35100000D02*
X2290000Y35100000D01*
X4550000Y34600000D02*
X2290000Y34600000D01*
X4550000Y34600000D02*
X6150000Y34600000D01*
X4550000Y32000000D02*
X6150000Y32000000D01*
X4550000Y31000000D02*
X4550000Y32000000D01*
X6150000Y35600000D02*
X4550000Y35600000D01*
X6150000Y34600000D02*
X6150000Y35600000D01*
X6150000Y32000000D02*
X6150000Y31000000D01*
X6150000Y31000000D02*
X4550000Y31000000D01*
X6650000Y33800000D02*
X6650000Y32800000D01*
X6650000Y32800000D02*
X2290000Y32800000D01*
X8510000Y36360000D02*
X8510000Y35440000D01*
X8510000Y35440000D02*
X10110000Y35440000D01*
X8510000Y35160000D02*
X8510000Y35440000D01*
X8510000Y35160000D02*
X9725000Y35160000D01*
X8510000Y31160000D02*
X8510000Y31440000D01*
X8510000Y30240000D02*
X8510000Y31160000D01*
X10110000Y36360000D02*
X2290000Y36360000D01*
X10110000Y35440000D02*
X10110000Y36360000D01*
X10110000Y31160000D02*
X8510000Y31160000D01*
X10110000Y30240000D02*
X10110000Y31160000D01*
%TO.C,C4*%
X11165000Y32938748D02*
X11165000Y33461252D01*
X12635000Y32938748D02*
X12635000Y33461252D01*
D12*
%TO.C,J1*%
X23475000Y16850000D02*
X23475000Y16350000D01*
X27070000Y36850000D02*
X28730000Y36850000D01*
X32225000Y36850001D02*
X31020000Y36850000D01*
X32225000Y36850001D02*
X32225000Y35320000D01*
X32225000Y16380000D02*
X32225000Y14849999D01*
X32225000Y14849999D02*
X27070000Y14850000D01*
D11*
%TO.C,C2*%
X14265000Y18511252D02*
X14265000Y17988748D01*
X15735000Y18511252D02*
X15735000Y17988748D01*
%TO.C,J2*%
X3600000Y27170000D02*
X5300000Y27170000D01*
X3600000Y17830000D02*
X5300000Y17830000D01*
%TO.C,TP1*%
X12900000Y29000000D02*
G75*
G02*
X11500000Y29000000I-700000J0D01*
G01*
X11500000Y29000000D02*
G75*
G02*
X12900000Y29000000I700000J0D01*
G01*
%TD*%
%LPC*%
%TO.C,J1*%
D13*
X30387500Y35850000D02*
G75*
G02*
X29362500Y35850000I-512500J0D01*
G01*
X29362500Y35850000D02*
G75*
G02*
X30387500Y35850000I512500J0D01*
G01*
D14*
X30237500Y15850000D02*
G75*
G02*
X29512500Y15850000I-362500J0D01*
G01*
X29512500Y15850000D02*
G75*
G02*
X30237500Y15850000I362500J0D01*
G01*
%TD*%
D15*
%TO.C,C1*%
X10750000Y19200000D03*
X10750000Y17300000D03*
%TD*%
%TO.C,C3*%
X17250000Y19200000D03*
X17250000Y17300000D03*
%TD*%
D16*
%TO.C,R2*%
X9325000Y20900000D03*
X9965000Y20900000D03*
%TD*%
D17*
%TO.C,SW1*%
X10750000Y6250000D03*
X4250000Y6250000D03*
X10750000Y10750000D03*
X4250000Y10750000D03*
%TD*%
D18*
%TO.C,TP2*%
X18200000Y24800000D03*
%TD*%
D17*
%TO.C,SW2*%
X21250000Y6250000D03*
X14750000Y6250000D03*
X21250000Y10750000D03*
X14750000Y10750000D03*
%TD*%
D19*
%TO.C,U1*%
X11962500Y23450000D03*
X11962500Y22500000D03*
X11962500Y21550000D03*
X14237500Y21550000D03*
X14237500Y22500000D03*
X14237500Y23450000D03*
%TD*%
D20*
%TO.C,J6*%
X16750000Y34540000D03*
D18*
X18020000Y34540000D03*
X16750000Y33270000D03*
X18020000Y33270000D03*
X16750000Y32000000D03*
X18020000Y32000000D03*
X16750000Y30730000D03*
X18020000Y30730000D03*
X16750000Y29460000D03*
X18020000Y29460000D03*
%TD*%
D21*
%TO.C,J3*%
X8650000Y34300000D03*
D22*
X8650000Y32300000D03*
%TD*%
D23*
%TO.C,C4*%
X11900000Y32250000D03*
X11900000Y34150000D03*
%TD*%
D16*
%TO.C,R3*%
X9325000Y24100000D03*
X9965000Y24100000D03*
%TD*%
D24*
%TO.C,J1*%
X50614999Y15349997D03*
D25*
X25375000Y15500000D03*
D26*
X29875000Y15850000D03*
D27*
X29875000Y35850000D03*
D25*
X25375000Y36200000D03*
D28*
X24600000Y16600000D03*
X32150000Y16850000D03*
X24600000Y17100000D03*
X32150000Y17349999D03*
X24600000Y17600000D03*
X32150000Y17850000D03*
X24600000Y18100000D03*
X32150000Y18350000D03*
X24600000Y18600000D03*
X32149999Y18850000D03*
X24600000Y19100000D03*
X32149999Y21350000D03*
X24600000Y21600000D03*
X32150000Y21850000D03*
X24600000Y22100000D03*
X32150000Y22350000D03*
X24600000Y22600000D03*
X32150000Y22850000D03*
X24600000Y23100000D03*
X32150000Y23350000D03*
X24600000Y23600000D03*
X32149999Y23850000D03*
X24600000Y24100000D03*
X32150000Y24350000D03*
X24600000Y24600000D03*
X32150000Y24850000D03*
X24600000Y25100000D03*
X32150000Y25350001D03*
X24600000Y25600000D03*
X32150000Y25850000D03*
X24600000Y26100000D03*
X32150000Y26349999D03*
X24600000Y26600000D03*
X32150000Y26850000D03*
X24600000Y27100000D03*
X32150000Y27350000D03*
X24600000Y27600000D03*
X32149999Y27850000D03*
X24600000Y28100000D03*
X32150000Y28350000D03*
X24600000Y28600000D03*
X32150000Y28850000D03*
X24600000Y29100000D03*
X32150000Y29350000D03*
X24600000Y29600000D03*
X32150000Y29850000D03*
X24600000Y30100000D03*
X32149999Y30350000D03*
X24600000Y30600000D03*
X32150000Y30850000D03*
X24600000Y31100000D03*
X32150000Y31350000D03*
X24600000Y31600000D03*
X32150000Y31850000D03*
X24600000Y32100000D03*
X32150000Y32350000D03*
X24600000Y32600000D03*
X32149999Y32850000D03*
X24600000Y33100000D03*
X32150000Y33350000D03*
X24600000Y33600000D03*
X32150000Y33850000D03*
X24600000Y34100000D03*
X32150000Y34350001D03*
X24600000Y34600000D03*
X32150000Y34850000D03*
X24600000Y35100000D03*
%TD*%
D15*
%TO.C,C2*%
X15000000Y19200000D03*
X15000000Y17300000D03*
%TD*%
D29*
%TO.C,J2*%
X6105000Y25390000D03*
X6105000Y19610000D03*
D30*
X7180000Y25700000D03*
X7180000Y24900000D03*
D31*
X7180000Y23750000D03*
X7180000Y22750000D03*
X7180000Y22250000D03*
X7180000Y21250000D03*
D30*
X7180000Y20100000D03*
X7180000Y19300000D03*
X7180000Y19300000D03*
X7180000Y20100000D03*
D31*
X7180000Y20750000D03*
X7180000Y21750000D03*
X7180000Y23250000D03*
X7180000Y24250000D03*
D30*
X7180000Y24900000D03*
X7180000Y25700000D03*
D32*
X6605000Y26820000D03*
D33*
X2425000Y26820000D03*
D32*
X6605000Y18180000D03*
D33*
X2425000Y18180000D03*
%TD*%
D16*
%TO.C,R1*%
X12430000Y19250000D03*
X13070000Y19250000D03*
%TD*%
D18*
%TO.C,TP1*%
X12200000Y29000000D03*
%TD*%
%LPD*%
M02*
