%TF.GenerationSoftware,KiCad,Pcbnew,9.0.5*%
%TF.CreationDate,2025-11-02T02:53:18+01:00*%
%TF.ProjectId,ESP32S3UMCarrierBoard,45535033-3253-4335-954d-436172726965,rev?*%
%TF.SameCoordinates,Original*%
%TF.FileFunction,Soldermask,Top*%
%TF.FilePolarity,Negative*%
%FSLAX46Y46*%
G04 Gerber Fmt 4.6, Leading zero omitted, Abs format (unit mm)*
G04 Created by KiCad (PCBNEW 9.0.5) date 2025-11-02 02:53:18*
%MOMM*%
%LPD*%
G01*
G04 APERTURE LIST*
G04 Aperture macros list*
%AMRoundRect*
0 Rectangle with rounded corners*
0 $1 Rounding radius*
0 $2 $3 $4 $5 $6 $7 $8 $9 X,Y pos of 4 corners*
0 Add a 4 corners polygon primitive as box body*
4,1,4,$2,$3,$4,$5,$6,$7,$8,$9,$2,$3,0*
0 Add four circle primitives for the rounded corners*
1,1,$1+$1,$2,$3*
1,1,$1+$1,$4,$5*
1,1,$1+$1,$6,$7*
1,1,$1+$1,$8,$9*
0 Add four rect primitives between the rounded corners*
20,1,$1+$1,$2,$3,$4,$5,0*
20,1,$1+$1,$4,$5,$6,$7,0*
20,1,$1+$1,$6,$7,$8,$9,0*
20,1,$1+$1,$8,$9,$2,$3,0*%
G04 Aperture macros list end*
%ADD10C,1.025000*%
%ADD11C,0.725000*%
%ADD12C,1.000000*%
%ADD13R,1.000000X1.000000*%
%ADD14RoundRect,0.250000X-0.625000X0.350000X-0.625000X-0.350000X0.625000X-0.350000X0.625000X0.350000X0*%
%ADD15O,1.750000X1.200000*%
%ADD16RoundRect,0.250000X-0.250000X-0.475000X0.250000X-0.475000X0.250000X0.475000X-0.250000X0.475000X0*%
%ADD17RoundRect,0.250000X-0.475000X0.250000X-0.475000X-0.250000X0.475000X-0.250000X0.475000X0.250000X0*%
%ADD18RoundRect,0.100000X-0.130000X-0.100000X0.130000X-0.100000X0.130000X0.100000X-0.130000X0.100000X0*%
%ADD19C,2.000000*%
%ADD20RoundRect,0.150000X-0.512500X-0.150000X0.512500X-0.150000X0.512500X0.150000X-0.512500X0.150000X0*%
%ADD21C,4.600000*%
%ADD22RoundRect,0.152500X1.232500X-0.457500X1.232500X0.457500X-1.232500X0.457500X-1.232500X-0.457500X0*%
%ADD23RoundRect,0.080000X0.705000X-0.080000X0.705000X0.080000X-0.705000X0.080000X-0.705000X-0.080000X0*%
%ADD24RoundRect,0.150000X-0.425000X0.150000X-0.425000X-0.150000X0.425000X-0.150000X0.425000X0.150000X0*%
%ADD25RoundRect,0.075000X-0.500000X0.075000X-0.500000X-0.075000X0.500000X-0.075000X0.500000X0.075000X0*%
%ADD26O,2.100000X1.000000*%
%ADD27O,1.800000X1.000000*%
G04 APERTURE END LIST*
%TO.C,J1*%
D10*
X30387500Y35850000D02*
G75*
G02*
X29362500Y35850000I-512500J0D01*
G01*
X29362500Y35850000D02*
G75*
G02*
X30387500Y35850000I512500J0D01*
G01*
D11*
X30237500Y15850000D02*
G75*
G02*
X29512500Y15850000I-362500J0D01*
G01*
X29512500Y15850000D02*
G75*
G02*
X30237500Y15850000I362500J0D01*
G01*
%TD*%
D12*
%TO.C,TP2*%
X63500000Y30000000D03*
%TD*%
%TO.C,TP1*%
X64000000Y33250000D03*
%TD*%
D13*
%TO.C,J6*%
X16750000Y34540000D03*
D12*
X18020000Y34540000D03*
X16750000Y33270000D03*
X18020000Y33270000D03*
X16750000Y32000000D03*
X18020000Y32000000D03*
X16750000Y30730000D03*
X18020000Y30730000D03*
X16750000Y29460000D03*
X18020000Y29460000D03*
%TD*%
D14*
%TO.C,J3*%
X8650000Y34300000D03*
D15*
X8650000Y32300000D03*
%TD*%
D16*
%TO.C,C4*%
X61550000Y18750000D03*
X63450000Y18750000D03*
%TD*%
D17*
%TO.C,C1*%
X10750000Y19200000D03*
X10750000Y17300000D03*
%TD*%
%TO.C,C3*%
X17250000Y19200000D03*
X17250000Y17300000D03*
%TD*%
D18*
%TO.C,R2*%
X9325000Y20900000D03*
X9965000Y20900000D03*
%TD*%
D19*
%TO.C,SW1*%
X10750000Y6250000D03*
X4250000Y6250000D03*
X10750000Y10750000D03*
X4250000Y10750000D03*
%TD*%
%TO.C,SW2*%
X21250000Y6250000D03*
X14750000Y6250000D03*
X21250000Y10750000D03*
X14750000Y10750000D03*
%TD*%
D20*
%TO.C,U1*%
X11962500Y23450000D03*
X11962500Y22500000D03*
X11962500Y21550000D03*
X14237500Y21550000D03*
X14237500Y22500000D03*
X14237500Y23450000D03*
%TD*%
D18*
%TO.C,R3*%
X9325000Y24100000D03*
X9965000Y24100000D03*
%TD*%
D21*
%TO.C,J1*%
X50614999Y15349997D03*
D22*
X25375000Y15500000D03*
X25375000Y36200000D03*
D23*
X24600000Y16600000D03*
X32150000Y16850000D03*
X24600000Y17100000D03*
X32150000Y17349999D03*
X24600000Y17600000D03*
X32150000Y17850000D03*
X24600000Y18100000D03*
X32150000Y18350000D03*
X24600000Y18600000D03*
X32149999Y18850000D03*
X24600000Y19100000D03*
X32149999Y21350000D03*
X24600000Y21600000D03*
X32150000Y21850000D03*
X24600000Y22100000D03*
X32150000Y22350000D03*
X24600000Y22600000D03*
X32150000Y22850000D03*
X24600000Y23100000D03*
X32150000Y23350000D03*
X24600000Y23600000D03*
X32149999Y23850000D03*
X24600000Y24100000D03*
X32150000Y24350000D03*
X24600000Y24600000D03*
X32150000Y24850000D03*
X24600000Y25100000D03*
X32150000Y25350001D03*
X24600000Y25600000D03*
X32150000Y25850000D03*
X24600000Y26100000D03*
X32150000Y26349999D03*
X24600000Y26600000D03*
X32150000Y26850000D03*
X24600000Y27100000D03*
X32150000Y27350000D03*
X24600000Y27600000D03*
X32149999Y27850000D03*
X24600000Y28100000D03*
X32150000Y28350000D03*
X24600000Y28600000D03*
X32150000Y28850000D03*
X24600000Y29100000D03*
X32150000Y29350000D03*
X24600000Y29600000D03*
X32150000Y29850000D03*
X24600000Y30100000D03*
X32149999Y30350000D03*
X24600000Y30600000D03*
X32150000Y30850000D03*
X24600000Y31100000D03*
X32150000Y31350000D03*
X24600000Y31600000D03*
X32150000Y31850000D03*
X24600000Y32100000D03*
X32150000Y32350000D03*
X24600000Y32600000D03*
X32149999Y32850000D03*
X24600000Y33100000D03*
X32150000Y33350000D03*
X24600000Y33600000D03*
X32150000Y33850000D03*
X24600000Y34100000D03*
X32150000Y34350001D03*
X24600000Y34600000D03*
X32150000Y34850000D03*
X24600000Y35100000D03*
%TD*%
D17*
%TO.C,C2*%
X15000000Y19200000D03*
X15000000Y17300000D03*
%TD*%
D24*
%TO.C,J2*%
X7180000Y25700000D03*
X7180000Y24900000D03*
D25*
X7180000Y23750000D03*
X7180000Y22750000D03*
X7180000Y22250000D03*
X7180000Y21250000D03*
D24*
X7180000Y20100000D03*
X7180000Y19300000D03*
X7180000Y19300000D03*
X7180000Y20100000D03*
D25*
X7180000Y20750000D03*
X7180000Y21750000D03*
X7180000Y23250000D03*
X7180000Y24250000D03*
D24*
X7180000Y24900000D03*
X7180000Y25700000D03*
D26*
X6605000Y26820000D03*
D27*
X2425000Y26820000D03*
D26*
X6605000Y18180000D03*
D27*
X2425000Y18180000D03*
%TD*%
D18*
%TO.C,R1*%
X12430000Y19250000D03*
X13070000Y19250000D03*
%TD*%
M02*
