M48
; DRILL file {KiCad 9.0.5} date 2025-11-02T03:08:23+0100
; FORMAT={-:-/ absolute / inch / decimal}
; #@! TF.CreationDate,2025-11-02T03:08:23+01:00
; #@! TF.GenerationSoftware,Kicad,Pcbnew,9.0.5
; #@! TF.FileFunction,Plated,1,2,PTH
FMAT,2
INCH
; #@! TA.AperFunction,Plated,PTH,ViaDrill
T1C0.0079
; #@! TA.AperFunction,Plated,PTH,ComponentDrill
T2C0.0236
; #@! TA.AperFunction,Plated,PTH,ComponentDrill
T3C0.0256
; #@! TA.AperFunction,Plated,PTH,ComponentDrill
T4C0.0295
; #@! TA.AperFunction,Plated,PTH,ComponentDrill
T5C0.0433
; #@! TA.AperFunction,Plated,PTH,ComponentDrill
T6C0.1043
%
G90
G05
T1
X0.3248Y0.75
X0.3307Y1.0315
X0.3465Y0.9803
X0.3465Y0.7913
X0.3563Y0.7185
X0.4764Y0.6811
X0.5079Y0.6811
X0.5157Y0.8898
X0.5197Y1.3583
X0.5394Y0.6811
X0.7323Y0.6811
X0.7776Y1.3583
X0.8858Y0.9685
T3
X0.6594Y1.3598
X0.6594Y1.3098
X0.6594Y1.2598
X0.6594Y1.2098
X0.6594Y1.1598
X0.7094Y1.3598
X0.7094Y1.3098
X0.7094Y1.2598
X0.7094Y1.2098
X0.7094Y1.1598
T4
X0.3406Y1.3504
X0.3406Y1.2717
T5
X0.1673Y0.4232
X0.1673Y0.2461
X0.4232Y0.4232
X0.4232Y0.2461
X0.5807Y0.4232
X0.5807Y0.2461
X0.8366Y0.4232
X0.8366Y0.2461
T6
X1.9927Y0.6043
T2
G00X0.1112Y1.0559
M15
G01X0.0797Y1.0559
M16
G05
G00X0.1112Y0.7157
M15
G01X0.0797Y0.7157
M16
G05
G00X0.2817Y1.0559
M15
G01X0.2384Y1.0559
M16
G05
G00X0.2817Y0.7157
M15
G01X0.2384Y0.7157
M16
G05
M30
